<svg width="50" height="50" viewBox="0 0 50 50" fill="none" xmlns="http://www.w3.org/2000/svg">
<path d="M38.0629 45.2027C34.8783 47.6076 31.1391 49.1714 27.1906 49.7495C23.2421 50.3276 19.2115 49.9014 15.4712 48.5104C11.7309 47.1193 8.40134 44.8082 5.79013 41.7905C3.17892 38.7727 1.37022 35.1457 0.531047 31.2443C-0.308122 27.3429 -0.150696 23.2929 0.988787 19.4684C2.12827 15.6439 4.21307 12.1682 7.05065 9.36231C9.88823 6.55637 13.3871 4.51068 17.2241 3.41416C21.0611 2.31764 25.1126 2.20565 29.0044 3.08852L27.6908 8.87889C24.772 8.21674 21.7334 8.30073 18.8556 9.12312C15.9778 9.94551 13.3537 11.4798 11.2255 13.5842C9.0973 15.6887 7.5337 18.2955 6.67909 21.1638C5.82448 24.0322 5.70641 27.0697 6.33578 29.9957C6.96516 32.9217 8.32169 35.642 10.2801 37.9053C12.2385 40.1686 14.7356 41.902 17.5409 42.9453C20.3461 43.9886 23.369 44.3082 26.3304 43.8746C29.2918 43.441 32.0962 42.2682 34.4847 40.4645L38.0629 45.2027Z" fill="#7879F1"/>
<path d="M50 38.125C50 43.3027 45.8027 47.5 40.625 47.5C35.4473 47.5 31.25 43.3027 31.25 38.125C31.25 32.9473 35.4473 28.75 40.625 28.75C45.8027 28.75 50 32.9473 50 38.125ZM36.875 38.125C36.875 40.1961 38.5539 41.875 40.625 41.875C42.6961 41.875 44.375 40.1961 44.375 38.125C44.375 36.0539 42.6961 34.375 40.625 34.375C38.5539 34.375 36.875 36.0539 36.875 38.125Z" fill="#7879F1"/>
<path d="M50 14.375C50 22.3141 43.5641 28.75 35.625 28.75C27.6859 28.75 21.25 22.3141 21.25 14.375C21.25 6.43591 27.6859 0 35.625 0C43.5641 0 50 6.43591 50 14.375ZM27 14.375C27 19.1385 30.8615 23 35.625 23C40.3885 23 44.25 19.1385 44.25 14.375C44.25 9.61154 40.3885 5.75 35.625 5.75C30.8615 5.75 27 9.61154 27 14.375Z" fill="#7879F1"/>
</svg>
