<svg width="40" height="40" viewBox="0 0 40 40" fill="none" xmlns="http://www.w3.org/2000/svg">
<path d="M30.4504 36.1621C27.9029 38.0859 24.9118 39.3369 21.7533 39.7995C18.5947 40.262 15.3705 39.9213 12.3784 38.8088C9.38625 37.6963 6.72266 35.8478 4.63357 33.4341C2.54448 31.0203 1.09723 28.1191 0.425461 24.9983C-0.24631 21.8775 -0.120946 18.6378 0.789978 15.5783C1.7009 12.5187 3.36802 9.73804 5.63739 7.49294C7.90676 5.24784 10.7052 3.61072 13.7744 2.73274C16.8435 1.85476 20.0844 1.76424 23.1978 2.46952L22.1483 7.10214C19.8133 6.57318 17.3826 6.64107 15.0808 7.29955C12.7789 7.95804 10.6801 9.18588 8.97804 10.8697C7.27601 12.5535 6.02568 14.6391 5.34248 16.9337C4.65929 19.2284 4.56527 21.6582 5.0691 23.9987C5.57292 26.3393 6.65836 28.5152 8.22518 30.3255C9.792 32.1359 11.7897 33.5222 14.0338 34.3566C16.2779 35.191 18.696 35.4465 21.065 35.0996C23.4339 34.7527 25.6772 33.8144 27.5878 32.3716L30.4504 36.1621Z" fill="black"/>
<path d="M40 30.5C40 34.6421 36.6421 38 32.5 38C28.3579 38 25 34.6421 25 30.5C25 26.3579 28.3579 23 32.5 23C36.6421 23 40 26.3579 40 30.5ZM29.5 30.5C29.5 32.1569 30.8431 33.5 32.5 33.5C34.1569 33.5 35.5 32.1569 35.5 30.5C35.5 28.8431 34.1569 27.5 32.5 27.5C30.8431 27.5 29.5 28.8431 29.5 30.5Z" fill="black"/>
<path d="M40 11.5C40 17.8513 34.8513 23 28.5 23C22.1487 23 17 17.8513 17 11.5C17 5.14873 22.1487 0 28.5 0C34.8513 0 40 5.14873 40 11.5ZM21.6 11.5C21.6 15.3108 24.6892 18.4 28.5 18.4C32.3108 18.4 35.4 15.3108 35.4 11.5C35.4 7.68924 32.3108 4.6 28.5 4.6C24.6892 4.6 21.6 7.68924 21.6 11.5Z" fill="black"/>
</svg>
